<svg width="298" height="131" viewBox="0 0 298 131" fill="none" xmlns="http://www.w3.org/2000/svg">
<path d="M114.375 0.125C123.625 2 129.562 3.45833 132.188 4.5L134.312 7.8125L134 8.1875C137.833 13.7708 139.75 17.4375 139.75 19.1875C137.667 21.4792 134.854 25.25 131.312 30.5C130.021 31.8333 129.104 32.5 128.562 32.5C121.146 30.1667 116.208 28.2708 113.75 26.8125L113.438 24.5V22.1875C113.438 14.8542 114.438 11.1875 116.438 11.1875C121.062 8.9375 124.396 7.8125 126.438 7.8125C128.396 8.47917 131.021 10.8125 134.312 14.8125V15.8125C134.312 19.9792 132.896 23.9792 130.062 27.8125C122.021 26.4792 118 25.375 118 24.5C118 17.8333 118.896 14.5 120.688 14.5L127.938 12.5C129.729 14.7917 130.75 16.7917 131 18.5C130.5 19.7083 129.083 21.8125 126.75 24.8125C122.917 23.3958 121 21.7292 121 19.8125V18.8125C121 17.8542 122.812 17.0833 126.438 16.5L126.75 16.1875H127.062C127.646 16.9792 127.938 17.75 127.938 18.5V19.1875C126.771 20.9375 125.979 21.8125 125.562 21.8125L123.125 20.8125L124.312 22.8125C127.146 22.5208 128.562 21.6458 128.562 20.1875L128.875 19.8125L129.5 18.5L127.062 14.5H126.125C122.292 14.9583 120.375 15.625 120.375 16.5L120.062 23.1875C123.812 25.1875 126.542 26.1875 128.25 26.1875C129.958 25.1875 131.271 23.0625 132.188 19.8125V19.5C131.854 14.625 130.646 12.1875 128.562 12.1875C127.896 11.3542 126.479 10.6875 124.312 10.1875H123.75C120.417 11.9792 117.792 13.9792 115.875 16.1875V16.5C116.542 23.375 117.25 26.8125 118 26.8125L128.25 30.1875H129.5C130.042 29.9792 130.833 28.75 131.875 26.5C133.042 26.5 134.562 24.1667 136.438 19.5C132.146 9.95833 129.125 5.1875 127.375 5.1875L123.125 4.5C114.917 5.16667 108.771 6.27083 104.688 7.8125L90.125 14.5C86.8333 16.75 83.5 18.5208 80.125 19.8125C71.25 24.6875 66.8125 28.5833 66.8125 31.5C63.1875 37.75 61.375 42.6458 61.375 46.1875L60.8125 48.8125V57.5C59.5625 61.5417 58.9375 70.7708 58.9375 85.1875L58.6875 87.875H58.375C58.375 93.9167 60.2917 99.0208 64.125 103.188V103.875H63.8125L58.6875 102.5L56.875 103.188C55.9583 102.729 54.6458 102.5 52.9375 102.5L42.3125 103.875V103.188C44.3542 102.604 45.375 101.042 45.375 98.5V93.1875C45.375 91.0625 44.6667 89.0625 43.25 87.1875C42.4167 85.8125 40.6875 80.25 38.0625 70.5C37.4792 69.6667 37.1875 68.7917 37.1875 67.875H36.5625C36.5625 69.5833 35.6667 72.3542 33.875 76.1875L31.4375 87.1875C30.4375 88.2708 29.5208 91.0417 28.6875 95.5H28.125C28.125 99.2083 29.8333 102.333 33.25 104.875V105.188H32.9375L26 102.5L22.375 102.875C18.75 101.583 15.625 100.792 13 100.5L10.25 100.875H6C12.875 95.125 16.3125 88.6667 16.3125 81.5L15.375 75.5L15.6875 75.1875H16C15.7917 70.3125 15.3958 66.6458 14.8125 64.1875L15.0625 61.875L14.8125 58.5V58.1875L16 47.8125V47.5C14.375 39.5 12.75 35.5 11.125 35.5C9.41667 33.5 7.3125 32.5 4.8125 32.5C3.14583 32.5 2.14583 33.5 1.8125 35.5C1.8125 35.8333 2.20833 36.1667 3 36.5C3.79167 36.5 4.1875 35.9375 4.1875 34.8125H4.8125V35.1875C4.8125 36.7292 4.10417 37.5 2.6875 37.5C1.27083 37.5 0.5625 36.7292 0.5625 35.1875C1.1875 32.5208 2.39583 31.1875 4.1875 31.1875H5.375L10.875 31.5C16.9583 31.5 22.5 29.5 27.5 25.5C30.5417 23.5 32.8542 22.5 34.4375 22.5V23.1875C32.0625 23.8958 30.0417 25.8958 28.375 29.1875L26 32.1875C24.875 35.7292 23.9583 37.5 23.25 37.5L23.5625 39.1875L22.0625 46.8125L22.375 47.8125C21.9167 47.8125 21.5 50.5 21.125 55.875L22.0625 66.5V66.875L21.75 71.5C22.3333 72.6667 22.625 74.7917 22.625 77.875L22.0625 85.5L22.375 90.5L22.625 90.875H22.9375C22.9375 89.0833 24.0625 86.0833 26.3125 81.875C26.3125 80.5833 27.4167 77.7917 29.625 73.5L32.9375 60.875C32.9375 57.75 33.8542 53.8542 35.6875 49.1875C35.7292 48.0625 36.0208 47.5 36.5625 47.5H36.875C37.4167 47.5 38.125 49.3958 39 53.1875C39.875 53.1875 41.0833 56.9583 42.625 64.5C43.0833 64.5 43.5833 66.3958 44.125 70.1875C47.1667 75.7292 48.6875 80.2917 48.6875 83.875L50.5 88.5H50.8125L52.625 84.1875C52.625 79.3958 53.2292 72.9583 54.4375 64.875L54.75 60.1875L54.125 59.5V52.5C53.3333 51.5833 52.9375 50.4792 52.9375 49.1875V45.8125C52.9375 38.9375 51.3125 35.5 48.0625 35.5H47.4375C45.1042 35.5 43.8125 36.2708 43.5625 37.8125H42.9375V37.5C42.9375 35.3333 45.8542 33.7708 51.6875 32.8125C59.7292 28.7708 68.4167 23.3333 77.75 16.5L101.938 4.1875L114.375 0.125ZM122.812 19.1875V20.5L124.625 18.5L125.25 19.1875C124.417 19.1875 124 19.3958 124 19.8125C124 20.3542 124.708 20.6875 126.125 20.8125L127.062 19.1875V18.8125L126.125 17.8125C123.917 18.2292 122.812 18.6875 122.812 19.1875ZM33.875 105.188H35.0625V105.875H34.4375L33.875 105.188ZM84.9375 48.25H85.1875C86.1458 48.25 87.0833 48.9167 88 50.25C88.8333 50.4583 91.25 52.6458 95.25 56.8125L99.25 61.8125L100.438 65.875V66.625C100.229 68.5 99.2917 70.5833 97.625 72.875C95.5833 77.25 93.7083 79.4375 92 79.4375L91.3125 79.6875C87.8125 79.6875 82.6458 77.5833 75.8125 73.375C74.7292 72.25 74.1875 71.0833 74.1875 69.875V69.375C74.8958 66.6667 76.6042 65.3125 79.3125 65.3125H79.5625C80.8125 65.3125 81.4375 66.0833 81.4375 67.625C81.0208 69.125 80.625 69.875 80.25 69.875H78.875L77.9375 68.875V68.375L78.375 67.875C78.375 68.5417 78.5417 68.875 78.875 68.875L79.5625 68.125V67.375C79.3958 66.875 78.9375 66.625 78.1875 66.625C77.4375 66.625 76.875 67.4583 76.5 69.125C76.5 70.4167 78.4583 71.75 82.375 73.125C84.2917 74.5833 86.7083 75.5 89.625 75.875C91.875 75.875 93.8333 74.2083 95.5 70.875L96 70.375V66.875C95.375 62.875 94.3542 60.1042 92.9375 58.5625C89.6042 55.8958 87.5625 54.5625 86.8125 54.5625H85.4375C84.5208 54.5625 82.7917 55.8125 80.25 58.3125C78.75 58.6458 76.6458 61.8333 73.9375 67.875L71.8125 73.375V75.125L75.125 83.4375C75.875 86.8958 77.8333 89.8125 81 92.1875C84.4167 94.5625 86.6042 95.75 87.5625 95.75L91.0625 96C92.6042 96 94.0833 95 95.5 93V90.6875L96 89.9375L94.125 82.4375C94.125 82.0625 94.8125 81.8125 96.1875 81.6875C97.8542 82.3125 98.9583 83.0625 99.5 83.9375V87.9375C99.5 91.8542 98.1667 94.9583 95.5 97.25C93.2083 99.5 91.5 100.917 90.375 101.5H89.875C84.9167 100 82.1042 98.6667 81.4375 97.5C80.3958 97.1667 79.375 96.25 78.375 94.75C76 91.875 74.375 90.1875 73.5 89.6875L69.25 82.6875C68.375 82.6875 67.3542 80.9167 66.1875 77.375V75.125L65.5 73.625L69.75 66.375C69.9167 64.625 71.8542 61.7708 75.5625 57.8125C75.5625 57.3125 77.8333 54.7917 82.375 50.25L84.9375 48.25ZM76.0625 53.8125H76.3125L75.5625 54.5625V54.3125L76.0625 53.8125ZM124.625 36.25C125.708 36.25 128.021 37.0625 131.562 38.6875L134.438 39.3125H139.125L145.625 39.0625L146.062 39.6875V40.125C146.062 40.375 145.25 40.7917 143.625 41.375C143.625 41.7083 142.812 42.1042 141.188 42.5625L137.875 47.9375L138.125 48.75L137.688 49.9375V50.5625L137.062 58L136.688 58.375V60L137.25 67.625L138.312 68.4375V68.875C138.312 69.125 137.958 69.25 137.25 69.25C136.333 71.4583 135.875 74.6042 135.875 78.6875L136.062 82.5625L135.25 91.8125C136.333 96.4792 137.208 98.8125 137.875 98.8125L138.938 100.062V100.438L138.5 100.875H136.688L134.188 101.5H131.562C131.146 101 129.917 100.646 127.875 100.438L126.875 100.25L126.625 100.062V99.8125C128.958 97.4375 130.125 94.8542 130.125 92.0625L130.75 89.75L130.562 86.3125L130.75 85.0625L130.562 83.4375L131.125 78.3125L130.312 74.375L129.688 73.5625L129.5 73.375H129.312L130.125 72.125V70.6875L129.688 70.3125H127.875C119.333 71.4375 114.771 72.7292 114.188 74.1875C112.104 74.8542 109.917 76.1458 107.625 78.0625C106.958 78.8125 106.625 80.7292 106.625 83.8125C106.625 84.6458 107.167 85.3958 108.25 86.0625C109.625 88.2292 111.271 89.8125 113.188 90.8125C118.729 93.6875 121.792 95.125 122.375 95.125H124C126.875 95.125 128.312 94.0208 128.312 91.8125V91.625C127.646 90.6667 126.896 90.1875 126.062 90.1875H125.812C125.104 90.5208 124.562 91.0625 124.188 91.8125V92.0625L125 93.0625H125.438C125.729 92.9792 126 92.6458 126.25 92.0625L125.625 91.8125V91.4375H125.812L126.625 92.25C126.625 93 126.167 93.6875 125.25 94.3125C123.792 94.3125 122.958 93.3542 122.75 91.4375C122.75 89.9375 123.979 89.1875 126.438 89.1875C127.812 89.1875 128.833 90.2083 129.5 92.25C129.5 93.9583 128.896 95.125 127.688 95.75C125.271 98.0417 123.021 99.1875 120.938 99.1875C115.688 97.1458 112.75 96.125 112.125 96.125C108.875 95.125 106.438 93.1458 104.812 90.1875C103.854 90.1875 102.625 88.5417 101.125 85.25L100.5 81.1875C100.5 77.3958 101.458 75.1875 103.375 74.5625C103.917 73.0625 104.729 72.3125 105.812 72.3125C106.979 71.3542 109.167 70 112.375 68.25C114.208 67.5417 117.188 66.9792 121.312 66.5625C127.188 66.0208 130.125 65.4792 130.125 64.9375H130.562V64.75C130.562 61.7083 130.417 59.7292 130.125 58.8125L130.312 58L130.125 57.125C130.542 57.125 130.75 56.375 130.75 54.875V54.25C130.5 49.75 130.229 47.5 129.938 47.5L130.125 46.875C130.125 45.9167 129.521 44.5625 128.312 42.8125C126.646 39.1042 125.062 37.25 123.562 37.25L123 36.4375L123.188 36.25H124.625ZM132.812 37.25H133.375V37.6875H132.812V37.25ZM168.375 36.25C169.458 36.25 171.771 37.0625 175.312 38.6875L178.188 39.3125H182.875L189.375 39.0625L189.812 39.6875V40.125C189.812 40.375 189 40.7917 187.375 41.375C187.375 41.7083 186.562 42.1042 184.938 42.5625L181.625 47.9375L181.875 48.75L181.438 49.9375V50.5625L180.812 58L180.438 58.375V60L181 67.625L182.062 68.4375V68.875C182.062 69.125 181.708 69.25 181 69.25C180.083 71.4583 179.625 74.6042 179.625 78.6875L179.812 82.5625L179 91.8125C180.083 96.4792 180.958 98.8125 181.625 98.8125L182.688 100.062V100.438L182.25 100.875H180.438L177.938 101.5H175.312C174.896 101 173.667 100.646 171.625 100.438L170.625 100.25L170.375 100.062V99.8125C172.708 97.4375 173.875 94.8542 173.875 92.0625L174.5 89.75L174.312 86.3125L174.5 85.0625L174.312 83.4375L174.875 78.3125L174.062 74.375L173.438 73.5625L173.25 73.375H173.062L173.875 72.125V70.6875L173.438 70.3125H171.625C163.083 71.4375 158.521 72.7292 157.938 74.1875C155.854 74.8542 153.667 76.1458 151.375 78.0625C150.708 78.8125 150.375 80.7292 150.375 83.8125C150.375 84.6458 150.917 85.3958 152 86.0625C153.375 88.2292 155.021 89.8125 156.938 90.8125C162.479 93.6875 165.542 95.125 166.125 95.125H167.75C170.625 95.125 172.062 94.0208 172.062 91.8125V91.625C171.396 90.6667 170.646 90.1875 169.812 90.1875H169.562C168.854 90.5208 168.312 91.0625 167.938 91.8125V92.0625L168.75 93.0625H169.188C169.479 92.9792 169.75 92.6458 170 92.0625L169.375 91.8125V91.4375H169.562L170.375 92.25C170.375 93 169.917 93.6875 169 94.3125C167.542 94.3125 166.708 93.3542 166.5 91.4375C166.5 89.9375 167.729 89.1875 170.188 89.1875C171.562 89.1875 172.583 90.2083 173.25 92.25C173.25 93.9583 172.646 95.125 171.438 95.75C169.021 98.0417 166.771 99.1875 164.688 99.1875C159.438 97.1458 156.5 96.125 155.875 96.125C152.625 95.125 150.188 93.1458 148.562 90.1875C147.604 90.1875 146.375 88.5417 144.875 85.25L144.25 81.1875C144.25 77.3958 145.208 75.1875 147.125 74.5625C147.667 73.0625 148.479 72.3125 149.562 72.3125C150.729 71.3542 152.917 70 156.125 68.25C157.958 67.5417 160.938 66.9792 165.062 66.5625C170.938 66.0208 173.875 65.4792 173.875 64.9375H174.312V64.75C174.312 61.7083 174.167 59.7292 173.875 58.8125L174.062 58L173.875 57.125C174.292 57.125 174.5 56.375 174.5 54.875V54.25C174.25 49.75 173.979 47.5 173.688 47.5L173.875 46.875C173.875 45.9167 173.271 44.5625 172.062 42.8125C170.396 39.1042 168.812 37.25 167.312 37.25L166.75 36.4375L166.938 36.25H168.375ZM176.562 37.25H177.125V37.6875H176.562V37.25ZM197.75 39.125C200.5 39.7083 203.979 40.9375 208.188 42.8125C210.146 44.4792 211.125 46.0417 211.125 47.5C211.875 50.75 212.25 53.125 212.25 54.625C212.25 56.2917 211.417 57.7917 209.75 59.125C209.75 60.5 206.208 61.7292 199.125 62.8125H197.75C194.667 61.5625 192.5 60.2083 191.25 58.75L186.938 54.4375L187.438 54C188.896 55.0417 190.979 56.9792 193.688 59.8125C194.521 59.8125 195.875 60.5208 197.75 61.9375L198 61.75H200.062C202.938 61.4167 205.333 60.625 207.25 59.375C208.125 59.0417 209.188 57.0208 210.438 53.3125C209.646 47.6042 208.521 44.75 207.062 44.75C204.271 42.875 201.25 41.9375 198 41.9375C194.375 41.9375 191.75 44.5833 190.125 49.875V50.75C194.667 56.7917 197.896 59.8125 199.812 59.8125H200.5C203.958 59.8125 206.146 57.4375 207.062 52.6875V50.5625C205.479 47.2292 203.208 45.5625 200.25 45.5625L195.938 44.9375L193.5 48.8125V49.875C196.458 54 198.333 56.2292 199.125 56.5625C202.458 56.5625 204.125 55.625 204.125 53.75C204.458 53.75 204.667 53.1042 204.75 51.8125C202.458 49.1042 200.729 47.75 199.562 47.75C197.771 48.2083 196.875 48.7083 196.875 49.25C196.875 50.7083 197.625 52.3542 199.125 54.1875C200.5 54.1875 201.479 53.5417 202.062 52.25C201.521 51.0833 200.771 50.2917 199.812 49.875H199.125L198.438 51.375L199.562 53.125C200.479 52.9167 200.938 52.4167 200.938 51.625L200.5 51L200.688 50.75H200.938L201.375 51.625C201.375 52.9167 200.771 53.5625 199.562 53.5625C198.604 53.5625 197.938 52.7083 197.562 51V49.6875C197.562 49.3125 198.396 48.875 200.062 48.375C202.312 50.625 203.438 52.2708 203.438 53.3125L199.375 55.6875H199.125C198.333 55.6875 197.062 53.3333 195.312 48.625V48.375L199.125 45.8125H199.562C203.604 48.3542 205.708 50.0833 205.875 51L206.125 51.625C206.125 54.7917 205.521 56.375 204.312 56.375C204.312 56.7083 203.708 57.0625 202.5 57.4375L200.5 58.75H199.812C197.312 57 195.729 55.4792 195.062 54.1875C193.146 52.1875 191.875 51.1875 191.25 51.1875C192.458 46.3125 193.812 43.875 195.312 43.875L202.5 43.25C204.75 44.9583 205.875 46.1667 205.875 46.875C207.792 48.7083 208.854 50.4375 209.062 52.0625V52.5C206.646 58.0833 204.229 60.875 201.812 60.875L201.188 61.0625H198.688C197.812 61.0625 195.479 59.2708 191.688 55.6875C189.562 53.4792 188.5 51.9792 188.5 51.1875V50.125C191.167 44.2083 193.583 40.9792 195.75 40.4375C195.75 40.1458 196.417 39.7083 197.75 39.125ZM212 62.625L212.438 63.25V64.3125C209.604 67.1458 208.188 68.7292 208.188 69.0625C206.521 72.3958 205.688 75.9792 205.688 79.8125L205.25 82.1875L206.812 91C207.062 93.5 207.667 95.6667 208.625 97.5C209.667 99.5 211.771 101 214.938 102C215.688 102 216.062 102.146 216.062 102.438L215.812 102.625H215.188L206.812 100.688L205.688 100.938H204.125C197.917 101.729 194.229 102.583 193.062 103.5C192.521 103.5 191.917 103.938 191.25 104.812V105.188C191.25 105.521 191.625 105.75 192.375 105.875C192.958 105.708 193.25 105.417 193.25 105H193.688V105.188C193.396 106.062 192.792 106.5 191.875 106.5H191.438C190.604 106.5 189.938 106.062 189.438 105.188V104.562C189.438 103.604 190.333 102.604 192.125 101.562C196.208 98.3958 198.25 95.8125 198.25 93.8125C198.833 92.6875 199.125 91.6875 199.125 90.8125H199.375L199.125 89.75L199.375 79.375C199.375 78.1667 198.771 76.2292 197.562 73.5625C196.354 69.5625 194.542 67.5625 192.125 67.5625L191.438 66.875V66.6875L192.125 66.0625H193.062L195.062 66.25C201.271 65.7083 205.938 64.8542 209.062 63.6875C210.021 62.9792 211 62.625 212 62.625ZM233.125 46.125L233.562 46.625C231.146 47.9583 229.521 49.875 228.688 52.375C228.104 54.25 227.667 58.2292 227.375 64.3125C231.458 60.1458 234.896 57.9167 237.688 57.625C237.688 57.375 238.208 57.2292 239.25 57.1875H239.688C241.771 57.1875 244.333 58.1042 247.375 59.9375C247.958 62.6875 248.688 65 249.562 66.875C250.271 68.75 251.167 72.1875 252.25 77.1875C252.5 77.2292 253.083 78.8542 254 82.0625L254.438 85.9375L254 87.5625L253.75 92.125C254.208 94.5417 255.021 97.2292 256.188 100.188C256.812 102.354 258.938 104.438 262.562 106.438L262.125 106.875H261.688L252.438 103.188C249.021 103.188 245.875 104.562 243 107.312L242.125 105.938C244.625 103.062 245.875 100.917 245.875 99.5L246.938 93.3125V93.0625L246.5 92.375C246.958 89.8333 247.188 87.5417 247.188 85.5V85.25C246.729 85.25 246.354 81.9583 246.062 75.375C245.479 75.375 245.188 73.2917 245.188 69.125C244.771 69.125 244.479 68.375 244.312 66.875C244.104 66.875 243.875 66.3333 243.625 65.25L243.188 64.3125L242.125 63.875H239.062L236.375 63.375C233.917 64.5417 231.5 66.6875 229.125 69.8125C227.667 71.1875 226.938 73.1875 226.938 75.8125H226.75L226.938 76.0625C226.188 81.3958 225.812 85.2292 225.812 87.5625C226.354 90.7708 227.542 94.6875 229.375 99.3125L232 101.812C231.833 102.271 231.396 102.5 230.688 102.5L230 102.25L229.812 102.5H229.562C227.146 101.75 223.188 101.208 217.688 100.875C217.146 101.25 216.062 101.479 214.438 101.562L214.188 101.375V101.125C216.729 97.375 218.417 93.4583 219.25 89.375L220.812 82.75C220.812 80.7083 221.021 78.7917 221.438 77C221.021 77 220.812 76.75 220.812 76.25L222.125 73.75L222.312 71L222.125 68.9375L222.312 60.875C222.312 57.9583 221.729 55.3542 220.562 53.0625V52.8125C222.229 52.5208 224.208 51.375 226.5 49.375C229.875 47.2083 232.083 46.125 233.125 46.125ZM295.812 50.3125C297.104 50.6042 297.75 51.25 297.75 52.25C297.75 53.1667 297.333 53.625 296.5 53.625H296.125L295.688 53.1875V52.5625L296.125 52.0625H296.312V52.25L296 52.6875V52.875L296.312 53.1875H296.812L297.125 52.25C297 51.8333 296.667 51.625 296.125 51.625C294.667 51.625 292.917 53.3542 290.875 56.8125L290.062 59.5L290.25 61.8125L290.062 64.8125L290.375 66.0625V67.5C290 69.25 289.625 72.9792 289.25 78.6875L288.125 84.8125L286.062 96.3125C285.896 96.3125 285.354 97.625 284.438 100.25C284.104 101.792 283.208 103.958 281.75 106.75C281.542 106.792 280.417 108.833 278.375 112.875C277.25 114.583 275.646 116.354 273.562 118.188C272.729 118.479 271.771 119.167 270.688 120.25C268.896 121.583 267.292 122.479 265.875 122.938C265.708 123.396 263.792 124.333 260.125 125.75C260 126.083 257.5 127.042 252.625 128.625C249.458 129.958 246.688 130.625 244.312 130.625H242.562C239.854 130.292 236.812 128.625 233.438 125.625C231.812 123.667 231 121.875 231 120.25C231 117.208 232.021 115.167 234.062 114.125C234.729 113.708 236.167 113.5 238.375 113.5H239.188C241.312 113.5 242.75 114.5 243.5 116.5C243.958 117.625 244.188 118.604 244.188 119.438C243.729 122.104 242.75 123.438 241.25 123.438L238.562 123.75C235.562 123.167 234.062 121.792 234.062 119.625C234.062 117.125 235.396 115.875 238.062 115.875C240.104 116.125 241.125 116.958 241.125 118.375L241.25 119.125C241.25 120.417 240.188 121.208 238.062 121.5C236.562 121.083 235.812 120.25 235.812 119V118.812C235.812 118.146 236.292 117.729 237.25 117.562H237.625C238.167 117.562 238.583 117.833 238.875 118.375V118.812C238.875 119.354 238.708 119.688 238.375 119.812H237.938V119.625L238.25 119.125V118.688L237.75 118.188H237.25C236.833 118.354 236.625 118.833 236.625 119.625C237.125 120.167 237.667 120.479 238.25 120.562C239.417 120.229 240 119.646 240 118.812V118.688C240 117.521 239.146 116.833 237.438 116.625H237.25C235.792 117.167 235.062 117.958 235.062 119V119.438C235.062 121.271 236.542 122.333 239.5 122.625C241.625 122.375 242.688 121.312 242.688 119.438L242.875 118.812V118.5C242.458 115.875 241.125 114.562 238.875 114.562L237.75 114.438H237.625C235.458 114.438 233.958 115.542 233.125 117.75L232.938 119.625V119.812C232.938 122.521 234.542 124.396 237.75 125.438C239.792 126.062 241.938 126.375 244.188 126.375L248.625 126.062C248.625 125.812 249.854 125.5 252.312 125.125C252.312 124.875 253.062 124.562 254.562 124.188C254.896 123.729 256.167 123.312 258.375 122.938C258.375 122.604 259.271 122.188 261.062 121.688C261.104 121.438 262.125 120.75 264.125 119.625C265.958 118 267.833 116.688 269.75 115.688C269.75 115.396 271.667 113.458 275.5 109.875C277.375 107.417 278.438 105.208 278.688 103.25C279.646 102.25 280.875 98.2708 282.375 91.3125L283 89.875V88.125L282.875 85C282.958 84.25 283.271 83.3125 283.812 82.1875L283.312 79.3125V78.0625C282.812 78.5625 281.438 79.25 279.188 80.125C277.396 81.2917 275.854 81.875 274.562 81.875L268.75 83.25C267.292 82.875 266.083 82.4583 265.125 82H263.312C261.438 81.0833 260.333 80.1875 260 79.3125L260.125 75.25C260.375 75.25 260.75 73.9375 261.25 71.3125C263.292 69.1458 264.312 67.7708 264.312 67.1875C264.312 66.4792 265 65.4792 266.375 64.1875C267.208 61.4792 268.375 59.75 269.875 59L275.312 55.1875L278.375 54.5625H281.125C283.25 54.5625 287.146 53.3125 292.812 50.8125L295.812 50.3125ZM266.188 74.9375V75.0625C267.896 76.8542 269.354 77.75 270.562 77.75H271.688C275.938 76.9583 278.062 76.375 278.062 76C279.312 75.0833 280.708 74.3542 282.25 73.8125L284.438 72.25L284.625 68.125L284.125 67.1875V65.9375C283.75 63.3958 283.167 61.6042 282.375 60.5625C282 59.1875 281.625 58.4583 281.25 58.375H279.812C276.896 59.625 274.708 61.0417 273.25 62.625C271.708 63.7917 270.333 65.8958 269.125 68.9375C268.375 69.3958 267.729 70.6458 267.188 72.6875C267.188 73.0625 266.854 73.8125 266.188 74.9375Z" fill="white"/>
</svg>
